<?xml version="1.0" encoding="UTF-8" standalone="no"?>
<svg
   width="452"
   height="63"
   viewBox="0 0 452 63"
   fill="none"
   version="1.1"
   id="svg13"
   sodipodi:docname="pretitle-img-green.svg"
   inkscape:version="1.2.2 (b0a8486541, 2022-12-01)"
   xmlns:inkscape="http://www.inkscape.org/namespaces/inkscape"
   xmlns:sodipodi="http://sodipodi.sourceforge.net/DTD/sodipodi-0.dtd"
   xmlns="http://www.w3.org/2000/svg"
   xmlns:svg="http://www.w3.org/2000/svg">
  <sodipodi:namedview
     id="namedview15"
     pagecolor="#ffffff"
     bordercolor="#000000"
     borderopacity="0.25"
     inkscape:showpageshadow="2"
     inkscape:pageopacity="0.0"
     inkscape:pagecheckerboard="0"
     inkscape:deskcolor="#d1d1d1"
     showgrid="false"
     inkscape:zoom="1.3827434"
     inkscape:cx="218.0448"
     inkscape:cy="-5.7856"
     inkscape:window-width="1366"
     inkscape:window-height="768"
     inkscape:window-x="0"
     inkscape:window-y="0"
     inkscape:window-maximized="1"
     inkscape:current-layer="svg13" />
  <g
     clip-path="url(#clip0_546_21)"
     id="g6"
     style="fill:#235d3b;fill-opacity:1">
    <path
       d="M13.8858 51.0783C15.9379 37.4227 27.0537 26.302 38.3594 26.304C38.4251 26.6525 38.5721 27.0921 38.4645 27.4301C36.6349 33.1752 39.0587 37.6299 42.9921 41.574C46.0196 44.6875 49.517 47.2268 53.6997 48.516C54.8969 48.8475 56.0942 49.1791 57.3939 49.2586C62.1541 49.6356 64.6613 47.0326 64.4299 42.2813C64.2773 39.0851 62.8751 36.4154 60.9372 33.9714C57.6313 29.7212 53.3041 26.5283 48.2209 24.3227C47.2021 23.9159 46.1834 23.5091 44.7419 22.9043C49.6854 17.4356 56.37 16.2076 62.7657 14.0146C61.6393 13.9457 60.5234 13.7053 59.3866 13.808C53.5028 14.7404 47.9997 16.5574 43.5786 20.5937C42.2921 21.721 41.1133 22.5102 39.2072 22.3937C31.8372 22.0294 25.6594 24.9249 20.477 30.0344C16.5914 33.8451 13.6223 38.3147 11.5747 43.3575C11.0628 44.6182 10.5509 45.8788 9.64526 47.8907C7.27669 43.9561 5.22324 40.5576 3.16978 37.1591C2.90461 37.229 2.63419 37.3848 2.36901 37.4547C2.24041 38.1359 1.92803 38.9781 2.15125 39.5947C3.18596 42.5864 4.22066 45.5781 5.43389 48.4946C6.57622 51.1483 7.89708 53.7269 9.03941 56.3806C10.187 58.9486 11.5366 59.634 13.3087 57.6751C16.383 54.3316 19.1264 50.7095 21.9565 47.0927C22.3345 46.599 22.0456 45.6339 22.0062 44.8563C21.1293 44.975 20.0081 44.8203 19.4568 45.3034C17.5219 47.0801 15.9283 48.9637 13.8858 51.0783ZM41.9223 26.3494C50.3243 28.3272 56.668 32.6769 60.4572 40.402C61.224 42.0853 61.7913 44.1872 60.1531 45.379C59.0609 46.1736 56.9709 46.2181 55.5085 45.9565C49.9291 44.7541 45.7857 41.4002 42.4036 36.973C40.0745 33.8161 39.494 30.5076 41.9223 26.3494Z"
       fill="#189CAB"
       id="path4"
       style="fill:#235d3b;fill-opacity:1" />
  </g>
  <defs
     id="defs11">
    <clipPath
       id="clip0_546_21">
      <rect
         width="62.5869"
         height="48.1438"
         fill="white"
         transform="matrix(-0.998138 -0.0610034 -0.0610034 0.998138 66.2363 14.1406)"
         id="rect8" />
    </clipPath>
  </defs>
  <text
     xml:space="preserve"
     style="font-size:96px;font-family:Rubik;-inkscape-font-specification:Rubik;opacity:1;fill:#235d3b;fill-opacity:1"
     x="115.16994"
     y="47.473534"
     id="text958"><tspan
       sodipodi:role="line"
       id="tspan956"
       x="115.16994"
       y="47.473534" /></text>
  <text
     xml:space="preserve"
     style="font-size:24.3224px;font-family:Rubik;-inkscape-font-specification:Rubik;opacity:1;fill:#235d3b;fill-opacity:1;stroke-width:1.01343"
     x="72.718163"
     y="30.162981"
     id="text1534"><tspan
       sodipodi:role="line"
       id="tspan1532"
       x="72.718163"
       y="30.162981"
       style="font-weight:normal;font-size:24.3224px;stroke-width:1.01343">Disponible solo en Latinoamerica</tspan></text>
</svg>
